<svg xmlns="http://www.w3.org/2000/svg" version="1.1" xmlns:xlink="http://www.w3.org/1999/xlink" xmlns:svgjs="http://svgjs.dev/svgjs" width="1500" height="939" viewBox="0 0 1500 939"><g transform="matrix(1,0,0,1,-0.9090909090909918,-1.5145161290323017)"><svg viewBox="0 0 396 248" data-background-color="#ffffff" preserveAspectRatio="xMidYMid meet" height="939" width="1500" xmlns="http://www.w3.org/2000/svg" xmlns:xlink="http://www.w3.org/1999/xlink"><g id="tight-bounds" transform="matrix(1,0,0,1,0.2400000000000091,0.4000000000000057)"><svg viewBox="0 0 395.52 247.2" height="247.2" width="395.52"><g><svg viewBox="0 0 395.52 247.2" height="247.2" width="395.52"><g transform="matrix(1,0,0,1,50.83418655097611,0)"><svg viewBox="0 0 293.85162689804775 247.2" height="247.2" width="293.85162689804775"><g><svg viewBox="0 0 293.85162689804775 247.2" height="247.2" width="293.85162689804775"><g><svg viewBox="0 0 293.85162689804775 247.2" height="247.2" width="293.85162689804775"><g><svg viewBox="0 0 293.85162689804775 247.2" height="247.2" width="293.85162689804775"><g id="textblocktransform"><svg viewBox="0 0 293.85162689804775 247.2" height="247.2" width="293.85162689804775" id="textblock"><g><svg viewBox="0 0 293.85162689804775 247.2" height="247.2" width="293.85162689804775"><g transform="matrix(1,0,0,1,0,0)"><svg width="293.85162689804775" viewBox="-2.95 -40.8 55.800000000000004 47.099999999999994" height="247.2" data-palette-color="#000000"><path d="M10.5-16.4L10.5-13.85Q10.5-11.3 10.8-9.8 11.1-8.3 12.1-8.1L12.1-8.1 12.05-8.1 12.5-8.05Q13.75-8.05 14.35-8.55 14.95-9.05 15.13-9.85 15.3-10.65 15.45-12.1L15.45-12.1Q15.55-13.6 15.8-14.85L15.8-14.85Q16.85-14.7 17.85-14.7L17.85-14.7 20.2-14.75Q22.1-14.75 23.25-14.45L23.25-14.45Q23.35-14.2 23.38-14.03 23.4-13.85 23.5-13.6L23.5-13.6 24.25-13.45Q24.95-11.5 24.95-9.45L24.95-9.45Q24.95-5.95 23.33-3.3 21.7-0.65 18.8 0.78 15.9 2.2 12.2 2.2L12.2 2.2Q9.6 2.2 7.2 1.2 4.8 0.2 3.18-1.68 1.55-3.55 1.3-6.05L1.3-6.05Q1.05-11.05 1.05-16.8L1.05-16.8 1.1-24.45Q1.15-25.2 1.15-26.8L1.15-26.8 1.1-27.35Q1.1-29.05 1.75-30.4L1.75-30.4 1.75-30.35Q2.9-33.55 5.18-35.18 7.45-36.8 11.35-36.8L11.35-36.8Q14.8-36.8 18-34.95 21.2-33.1 23.15-30.08 25.1-27.05 25.1-23.75L25.1-23.75Q25.1-21.8 24.3-19.6L24.3-19.6Q22.85-19.25 21.15-19.25L21.15-19.25Q18.95-19.25 16.2-19.8L16.2-19.8 16.1-20.6Q15.4-20.7 15.25-20.95 15.1-21.2 15.08-21.93 15.05-22.65 15-23L15-23Q14.95-23.4 14.93-24.38 14.9-25.35 14.5-25.88 14.1-26.4 13.15-26.4L13.15-26.4Q12.6-26.4 11.93-26.2 11.25-26 11-25.75L11-25.75Q10.9-25.65 10.7-23.23 10.5-20.8 10.5-16.4L10.5-16.4ZM12.35-27.9Q13.7-27.9 14.35-27.23 15-26.55 15.2-25.6 15.4-24.65 15.5-23.05L15.5-23.05Q15.5-22.75 15.55-22.2 15.6-21.65 15.65-21.25L15.65-21.25Q17.85-20.75 20.15-20.75L20.15-20.75Q21.55-20.75 22.95-21.05L22.95-21.05Q23.6-22.8 23.6-24.75L23.6-24.75Q23.6-27.9 21.9-30.55 20.2-33.2 17.38-34.75 14.55-36.3 11.35-36.3L11.35-36.3Q7.95-36.3 5.65-34.88 3.35-33.45 2.2-30.2L2.2-30.2Q1.6-28.75 1.6-27.45L1.6-27.45Q1.6-27 1.65-26.85L1.65-26.85Q1.65-25.3 1.6-24.55L1.6-24.55 1.55-16.8Q1.55-11.1 1.8-6.1L1.8-6.1Q2.1-2.7 4.85-1 7.6 0.7 11.2 0.7L11.2 0.7Q14.7 0.7 17.5-0.68 20.3-2.05 21.88-4.58 23.45-7.1 23.45-10.45L23.45-10.45Q23.45-12.35 22.9-14L22.9-14Q21.95-14.25 20.3-14.25L20.3-14.25 17.65-14.2Q17.1-14.2 16.2-14.3L16.2-14.3Q16-13.6 15.9-12.05L15.9-12.05Q15.8-10.6 15.58-9.68 15.35-8.75 14.63-8.15 13.9-7.55 12.45-7.55L12.45-7.55Q10.3-7.55 9.63-9.78 8.95-12 8.95-15.6L8.95-15.6 8.95-17.4Q8.95-22.1 9.2-24.5 9.45-26.9 9.65-27.1L9.65-27.1Q10.05-27.5 10.85-27.7 11.65-27.9 12.35-27.9L12.35-27.9ZM36.05-17.85Q36.2-17.85 36.2-17.75L36.2-17.75 36.3-17.85Q37.2-18.4 40.35-18.4L40.35-18.4Q42.25-18.4 44.85-18.2L44.85-18.2 46.8-18.1 47.4-18.05Q47.4-17.8 47.5-17.1L47.5-17.1 48.4-17.05Q48.45-16.6 48.65-14.35 48.85-12.1 48.85-10.25L48.85-10.25Q48.85-7 48.45-5.15L48.45-5.15 48.45-5.2Q48-1.05 44.7 0.63 41.4 2.3 36.65 2.3L36.65 2.3Q33.35 2.3 30.87 0.65 28.4-1 27.07-3.8 25.75-6.6 25.75-10L25.75-10Q25.25-14.2 25.25-18.25L25.25-18.25 25.25-20.95Q25.25-25.15 25.92-28.23 26.6-31.3 29.05-33.45 31.5-35.6 36.35-35.6L36.35-35.6Q39.65-35.6 42.42-34.23 45.2-32.85 46.85-30.38 48.5-27.9 48.5-24.65L48.5-24.65Q48.5-24.45 48.5-23.65 48.5-22.85 48.12-22.45 47.75-22.05 46.9-22.05L46.9-22.05 45-22.05Q44.65-22.05 43.72-22.03 42.8-22 41.15-22.25L41.15-22.25Q41.1-22.4 41.05-22.65 41-22.9 40.82-23.03 40.65-23.15 40.15-23.25L40.15-23.25Q39.75-24.5 39.5-25.05 39.25-25.6 38.65-26 38.05-26.4 36.95-26.4L36.95-26.4Q36.85-26.4 36.35-26.4 35.85-26.4 35.57-26.03 35.3-25.65 35.05-24.8L35.05-24.8Q34.1-21.65 34.1-15.6L34.1-15.6 34.1-13.45Q34.1-11.4 34.3-9.9 34.5-8.4 35.1-7.3L35.1-7.3 35.7-7.15 35.65-7.15Q35.85-7.1 36.3-7.1L36.3-7.1Q37.6-7.1 38.55-7.55L38.55-7.55 38.5-7.55Q39.2-7.85 39.5-8.38 39.8-8.9 40.05-10.4L40.05-10.4 39.1-10.4Q37.85-10.4 37.15-10.65L37.15-10.65Q37.05-11.2 36.92-11.35 36.8-11.5 36.57-11.55 36.35-11.6 36.15-11.65L36.15-11.65Q35.95-13.15 35.95-14.8L35.95-14.8Q35.95-17.15 35.9-17.85L35.9-17.85 36.05-17.85ZM36.4-17.3L36.4-17.25Q36.5-16.6 36.5-16 36.5-15.4 36.5-15.25L36.5-15.25 36.5-13.85 36.5-13.2Q36.5-12.45 36.6-12L36.6-12Q36.7-11.9 37.15-11.9L37.15-11.9 39.6-11.95 39.95-11.95Q40.25-11.95 40.37-11.78 40.5-11.6 40.5-11.05L40.5-11.05Q40.5-8.3 39.35-7.45 38.2-6.6 36.2-6.6L36.2-6.6Q34.05-6.6 33.3-8.8 32.55-11 32.55-14.25L32.55-14.25 32.6-16.6Q32.6-20.25 33-23.43 33.4-26.6 34.1-27.3L34.1-27.3Q34.5-27.7 34.87-27.8 35.25-27.9 35.9-27.9L35.9-27.9 37.15-27.85Q38.45-27.85 39.27-26.55 40.1-25.25 40.55-23.7L40.55-23.7Q42.1-23.5 43.15-23.5L43.15-23.5Q46.75-23.5 46.85-23.75L46.85-23.75 46.9-24.05Q47-25.15 47-25.65L47-25.65Q47-30.15 44-32.63 41-35.1 36.35-35.1L36.35-35.1Q31.65-35.1 29.25-33.1L29.25-33.1Q27.15-31.6 26.42-28.38 25.7-25.15 25.7-21.2L25.7-21.2 25.75-17.85Q25.75-12.3 26.25-8.53 26.75-4.75 28.92-1.98 31.1 0.8 35.65 0.8L35.65 0.8Q40.1 0.8 43.3-0.75 46.5-2.3 46.95-6.25L46.95-6.25Q47.35-8.1 47.35-11.25L47.35-11.25Q47.35-13.55 46.95-17.55L46.95-17.55 46.8-17.6 45.15-17.7Q42.45-17.9 40.25-17.9L40.25-17.9Q37.35-17.9 36.55-17.4L36.55-17.4 36.4-17.3Z" opacity="1" transform="matrix(1,0,0,1,0,0)" fill="#000000" class="wordmark-text-0" data-fill-palette-color="primary" id="text-0"></path></svg></g></svg></g></svg></g></svg></g></svg></g></svg></g></svg></g></svg></g><defs></defs></svg><rect width="395.52" height="247.2" fill="none" stroke="none" visibility="hidden"></rect></g></svg></g></svg>